<svg id="visual" viewBox="0 0 900 600" width="900" height="600" xmlns="http://www.w3.org/2000/svg" xmlns:xlink="http://www.w3.org/1999/xlink" version="1.1"><rect x="0" y="0" width="900" height="600" fill="#ffffff"></rect><path d="M0 350L21.5 337.5C43 325 86 300 128.8 271.7C171.7 243.3 214.3 211.7 257.2 227.8C300 244 343 308 385.8 302C428.7 296 471.3 220 514.2 196.2C557 172.3 600 200.7 642.8 215.7C685.7 230.7 728.3 232.3 771.2 239C814 245.7 857 257.3 878.5 263.2L900 269L900 601L878.5 601C857 601 814 601 771.2 601C728.3 601 685.7 601 642.8 601C600 601 557 601 514.2 601C471.3 601 428.7 601 385.8 601C343 601 300 601 257.2 601C214.3 601 171.7 601 128.8 601C86 601 43 601 21.5 601L0 601Z" fill="#fa7268"></path><path d="M0 263L21.5 258.2C43 253.3 86 243.7 128.8 272.8C171.7 302 214.3 370 257.2 369.2C300 368.3 343 298.7 385.8 268.5C428.7 238.3 471.3 247.7 514.2 259.3C557 271 600 285 642.8 306.7C685.7 328.3 728.3 357.7 771.2 358C814 358.3 857 329.7 878.5 315.3L900 301L900 601L878.5 601C857 601 814 601 771.2 601C728.3 601 685.7 601 642.8 601C600 601 557 601 514.2 601C471.3 601 428.7 601 385.8 601C343 601 300 601 257.2 601C214.3 601 171.7 601 128.8 601C86 601 43 601 21.5 601L0 601Z" fill="#ef5f67"></path><path d="M0 360L21.5 374.5C43 389 86 418 128.8 430C171.7 442 214.3 437 257.2 431.5C300 426 343 420 385.8 403.2C428.7 386.3 471.3 358.7 514.2 353.8C557 349 600 367 642.8 382.7C685.7 398.3 728.3 411.7 771.2 408.8C814 406 857 387 878.5 377.5L900 368L900 601L878.5 601C857 601 814 601 771.2 601C728.3 601 685.7 601 642.8 601C600 601 557 601 514.2 601C471.3 601 428.7 601 385.8 601C343 601 300 601 257.2 601C214.3 601 171.7 601 128.8 601C86 601 43 601 21.5 601L0 601Z" fill="#e34c67"></path><path d="M0 375L21.5 397.5C43 420 86 465 128.8 479.2C171.7 493.3 214.3 476.7 257.2 460.8C300 445 343 430 385.8 419C428.7 408 471.3 401 514.2 413.2C557 425.3 600 456.7 642.8 459C685.7 461.3 728.3 434.7 771.2 429.8C814 425 857 442 878.5 450.5L900 459L900 601L878.5 601C857 601 814 601 771.2 601C728.3 601 685.7 601 642.8 601C600 601 557 601 514.2 601C471.3 601 428.7 601 385.8 601C343 601 300 601 257.2 601C214.3 601 171.7 601 128.8 601C86 601 43 601 21.5 601L0 601Z" fill="#d53867"></path><path d="M0 519L21.5 518.3C43 517.7 86 516.3 128.8 517.7C171.7 519 214.3 523 257.2 520.5C300 518 343 509 385.8 515.5C428.7 522 471.3 544 514.2 538C557 532 600 498 642.8 490.2C685.7 482.3 728.3 500.7 771.2 507.8C814 515 857 511 878.5 509L900 507L900 601L878.5 601C857 601 814 601 771.2 601C728.3 601 685.7 601 642.8 601C600 601 557 601 514.2 601C471.3 601 428.7 601 385.8 601C343 601 300 601 257.2 601C214.3 601 171.7 601 128.8 601C86 601 43 601 21.5 601L0 601Z" fill="#c62368"></path></svg>