<svg id="visual" viewBox="0 0 450 900" width="450" height="900" xmlns="http://www.w3.org/2000/svg" xmlns:xlink="http://www.w3.org/1999/xlink" version="1.1"><path d="M0 37L12.5 43C25 49 50 61 75 61C100 61 125 49 150 43C175 37 200 37 225 38.5C250 40 275 43 300 44.5C325 46 350 46 375 47.5C400 49 425 52 437.5 53.5L450 55L450 0L437.5 0C425 0 400 0 375 0C350 0 325 0 300 0C275 0 250 0 225 0C200 0 175 0 150 0C125 0 100 0 75 0C50 0 25 0 12.5 0L0 0Z" fill="#ffffff"></path><path d="M0 82L12.5 83.5C25 85 50 88 75 88C100 88 125 85 150 80.5C175 76 200 70 225 67C250 64 275 64 300 67C325 70 350 76 375 79C400 82 425 82 437.5 82L450 82L450 53L437.5 51.5C425 50 400 47 375 45.5C350 44 325 44 300 42.5C275 41 250 38 225 36.5C200 35 175 35 150 41C125 47 100 59 75 59C50 59 25 47 12.5 41L0 35Z" fill="#ffd6e9"></path><path d="M0 145L12.5 140.5C25 136 50 127 75 125.5C100 124 125 130 150 127C175 124 200 112 225 109C250 106 275 112 300 119.5C325 127 350 136 375 140.5C400 145 425 145 437.5 145L450 145L450 80L437.5 80C425 80 400 80 375 77C350 74 325 68 300 65C275 62 250 62 225 65C200 68 175 74 150 78.5C125 83 100 86 75 86C50 86 25 83 12.5 81.5L0 80Z" fill="#ffacd4"></path><path d="M0 343L12.5 344.5C25 346 50 349 75 364C100 379 125 406 150 382C175 358 200 283 225 254.5C250 226 275 244 300 250C325 256 350 250 375 271C400 292 425 340 437.5 364L450 388L450 143L437.5 143C425 143 400 143 375 138.5C350 134 325 125 300 117.5C275 110 250 104 225 107C200 110 175 122 150 125C125 128 100 122 75 123.5C50 125 25 134 12.5 138.5L0 143Z" fill="#ff7ec0"></path><path d="M0 496L12.5 490C25 484 50 472 75 481C100 490 125 520 150 511C175 502 200 454 225 434.5C250 415 275 424 300 424C325 424 350 415 375 431.5C400 448 425 490 437.5 511L450 532L450 386L437.5 362C425 338 400 290 375 269C350 248 325 254 300 248C275 242 250 224 225 252.5C200 281 175 356 150 380C125 404 100 377 75 362C50 347 25 344 12.5 342.5L0 341Z" fill="#ff42ab"></path><path d="M0 631L12.5 623.5C25 616 50 601 75 599.5C100 598 125 610 150 598C175 586 200 550 225 538C250 526 275 538 300 541C325 544 350 538 375 544C400 550 425 568 437.5 577L450 586L450 530L437.5 509C425 488 400 446 375 429.5C350 413 325 422 300 422C275 422 250 413 225 432.5C200 452 175 500 150 509C125 518 100 488 75 479C50 470 25 482 12.5 488L0 494Z" fill="#ff12a2"></path><path d="M0 703L12.5 689.5C25 676 50 649 75 643C100 637 125 652 150 647.5C175 643 200 619 225 611.5C250 604 275 613 300 616C325 619 350 616 375 620.5C400 625 425 637 437.5 643L450 649L450 584L437.5 575C425 566 400 548 375 542C350 536 325 542 300 539C275 536 250 524 225 536C200 548 175 584 150 596C125 608 100 596 75 597.5C50 599 25 614 12.5 621.5L0 629Z" fill="#ff12a2"></path><path d="M0 739L12.5 740.5C25 742 50 745 75 742C100 739 125 730 150 725.5C175 721 200 721 225 719.5C250 718 275 715 300 712C325 709 350 706 375 712C400 718 425 733 437.5 740.5L450 748L450 647L437.5 641C425 635 400 623 375 618.5C350 614 325 617 300 614C275 611 250 602 225 609.5C200 617 175 641 150 645.5C125 650 100 635 75 641C50 647 25 674 12.5 687.5L0 701Z" fill="#ff42ab"></path><path d="M0 775L12.5 781C25 787 50 799 75 800.5C100 802 125 793 150 788.5C175 784 200 784 225 781C250 778 275 772 300 769C325 766 350 766 375 773.5C400 781 425 796 437.5 803.5L450 811L450 746L437.5 738.5C425 731 400 716 375 710C350 704 325 707 300 710C275 713 250 716 225 717.5C200 719 175 719 150 723.5C125 728 100 737 75 740C50 743 25 740 12.5 738.5L0 737Z" fill="#ff7ec0"></path><path d="M0 793L12.5 805C25 817 50 841 75 847C100 853 125 841 150 836.5C175 832 200 835 225 829C250 823 275 808 300 802C325 796 350 799 375 809.5C400 820 425 838 437.5 847L450 856L450 809L437.5 801.5C425 794 400 779 375 771.5C350 764 325 764 300 767C275 770 250 776 225 779C200 782 175 782 150 786.5C125 791 100 800 75 798.5C50 797 25 785 12.5 779L0 773Z" fill="#ffacd4"></path><path d="M0 856L12.5 860.5C25 865 50 874 75 875.5C100 877 125 871 150 871C175 871 200 877 225 875.5C250 874 275 865 300 862C325 859 350 862 375 866.5C400 871 425 877 437.5 880L450 883L450 854L437.5 845C425 836 400 818 375 807.5C350 797 325 794 300 800C275 806 250 821 225 827C200 833 175 830 150 834.5C125 839 100 851 75 845C50 839 25 815 12.5 803L0 791Z" fill="#ffd6e9"></path><path d="M0 901L12.5 901C25 901 50 901 75 901C100 901 125 901 150 901C175 901 200 901 225 901C250 901 275 901 300 901C325 901 350 901 375 901C400 901 425 901 437.5 901L450 901L450 881L437.5 878C425 875 400 869 375 864.5C350 860 325 857 300 860C275 863 250 872 225 873.5C200 875 175 869 150 869C125 869 100 875 75 873.5C50 872 25 863 12.5 858.5L0 854Z" fill="#ffffff"></path></svg>